#tb 0: 1/25
0,          0,          0,        1,   196608, 0xa0939af1
0,          1,          1,        1,   196608, 0x43699af1
0,          2,          2,        1,   196608, 0x69a19af1
